<?xml version="1.0" encoding="utf-8"?>
<svg id="master-artboard" viewBox="0 0 470.5579528808594 376.6931457519531" version="1.1" xmlns="http://www.w3.org/2000/svg" x="0px" y="0px" enable-background="new 0 0 1400 980" width="470.5579528808594px" height="376.6931457519531px"><rect id="ee-background" x="0" y="0" width="470.5579528808594" height="376.6931457519531" style="fill: white; fill-opacity: 0; pointer-events: none;"/>




<path fill="#046AA3" d="M498.5,816.9c4.5-16.8,10.7-39.7,22.1-67.5c1-2.4,4-9.9-1-14.9c-1.5-1.5-4.2-3.3-8.7-3.3&#10;&#9;c-0.4,0-0.8,0-1.3,0.1c0.2-2.8-0.3-5.9-2.8-8.4c-0.6-0.7-1.5-1.4-2.7-2c4.6-7.4,8.4-15.6,10.9-23.9l0.2-0.6l0-0.7c0-1,0-1.9,0-2.7&#10;&#9;c-0.1-2.1-0.5-7-4.6-9.1c-1.4-0.7-2.9-1.1-4.3-1.1c-1.5,0-2.7,0.4-3.7,0.9c0-0.9,0-1.6,0-2.4c-0.1-2.1-0.5-7-4.6-9.1&#10;&#9;c-0.9-0.5-1.8-0.8-2.7-1c-0.3-3.5-1.6-7.1-3.8-10.2c-2.7-3.8-6.3-6.4-10.4-7.4c-0.6-1.5-1.4-2.9-2.3-4.2c-3.4-4.8-8.4-7.7-13.6-8&#10;&#9;c-0.4,0-0.8,0-1.2,0c-1.5,0-2.9,0.2-4.3,0.5c-5.1,0.3-9.8,2.4-14,5.7c-4.8,3.8-9.7,8.3-13.5,13.3c-0.3-2.9-1.4-5.6-3.8-7.8&#10;&#9;c-1.9-1.8-4.5-2.7-7.4-2.7c-3.5,0-7.3,1.4-10.7,3.2c0.9-1.9,1.5-4,1.7-6.2l0-0.2l0-0.2c0-0.9,0-1.7-0.1-2.5&#10;&#9;c-0.4-4.1-2.2-7.7-5.4-10.4c-2.2-1.8-4.7-3-7.7-3.6c-0.8-3.1-2.5-5.9-5-8.1c-3.2-2.7-7.3-4.1-12.1-4.1c-0.6,0-1.3,0-1.9,0.1l-0.2,0&#10;&#9;c-0.8,0.1-1.6,0.2-2.3,0.4c-4.4,0.9-8.4,2.9-11.7,5.9c-4,3.6-6.3,8-6.9,12.9l0,0.2l0,0.2c0,0.9,0,1.7,0.1,2.5&#10;&#9;c0.4,4.2,2.3,7.8,5.4,10.4c2.2,1.8,4.8,3,7.7,3.6c0.5,2,1.3,3.8,2.5,5.3c-1-0.1-2.1-0.2-3.1-0.2c-3.4,0-6.7,0.7-9.7,2.1&#10;&#9;c-10.6,4.8-13,15-14.9,23.2c-0.2,1-0.5,2-0.7,3c0,0.1-0.1,0.3-0.1,0.4c-0.7-0.8-1.4-1.5-2.1-2.1c-2.1-1.8-4.4-3.2-7-4.2&#10;&#9;c-1.5-3-3.4-5.5-5.7-7.5c-4.2-3.7-9.4-5.6-15.4-5.6c-2.2,0-4.6,0.3-7.1,0.8c-13.1,2.8-23.2,10.9-30.5,21.1c0.8-3.7,1.7-7.4,2.7-11&#10;&#9;c0.2-0.8,0.5-1.6,0.8-2.5c2.2-7,5.2-16.6,0.4-24.5c-2.8-4.6-6.6-7.6-11.3-8.8c-0.4-1-0.8-1.9-1.4-2.9c-3.8-6.2-9.6-9.5-16.7-9.5&#10;&#9;c-8.8,0-18.1,5-26,9.9c-9,5.5-17.3,12.2-24.6,19.7c-7.4,7.6-13.3,15.8-17.5,24.3c-4.5,8.9-6.4,17.6-5.6,25.8&#10;&#9;c0.3,3.2,1.4,6.2,3.4,9.2c2.1,3.1,5,5.4,8.8,6.9c0.5,0.2,1.1,0.4,1.6,0.5c0.6,1.5,1.3,2.9,2.2,4.3c2.1,3.1,5,5.4,8.8,6.9&#10;&#9;c2.1,0.8,4.4,1.2,7,1.3l0.7,0l0.7-0.2c2.9-0.8,5.3-2.1,7.2-3.8c-0.9,6.6-1.9,13.2-3,20c-1,0.7-2,1.4-3.1,2.1&#10;&#9;c-17.1,11.1-29.5,22.5-39.2,36c-8,9.9-11.7,19.4-10.9,28.1c0.7,7.3,4,12.9,9.8,16.2c1.4,0.8,2.9,1.5,4.4,2c1.6,4.1,4.4,7.4,8.3,9.7&#10;&#9;c3.6,2.1,7.8,3.2,12.4,3.2c2.3,0,4.7-0.3,7.1-0.8c9.4-2,17.4-5.4,23.9-10.1c6.3-4.7,11.6-10.3,15.7-16.6c3.7-5.5,6.7-11.4,9-17.5&#10;&#9;c2.3-5.9,4.2-11.8,5.8-17.6c2.2-8.1,4-16.4,5.6-24.8c2.7-1.8,5.7-3.8,8.8-5.9c0.5-0.2,1-0.5,1.5-0.7c1.2,0.8,2.6,1.5,4,2.1&#10;&#9;c0.5,0.9,0.9,1.7,1.5,2.6c2.8,4.3,6.9,7.5,12.1,9.5c2.1,0.8,4.3,1.3,6.7,1.5c-2.7,1.3-5.3,2.8-8,4.4c-9,5.5-17.2,12.2-24.5,19.7&#10;&#9;c-7.4,7.6-13.3,15.8-17.6,24.3c-4.5,8.9-6.4,17.6-5.7,25.8c0.3,3.2,1.5,6.3,3.5,9.2c2.1,3,5.1,5.3,8.9,6.8c0.5,0.2,1,0.4,1.5,0.5&#10;&#9;c0.6,1.5,1.3,3,2.3,4.4c2.1,3,5.1,5.3,8.9,6.8c2.2,0.8,4.6,1.3,7.2,1.3c1.2,0,2.5-0.1,3.7-0.3c-1.1,8.1-1.5,14.3-1.1,19&#10;&#9;c0.2,2.7,1.1,5.5,2.5,8.3c1.7,3.3,4.4,5.9,8.1,7.6c1,0.5,2.1,0.8,3.3,1c0.4,1,0.8,2,1.3,3.1c1.7,3.3,4.4,5.9,8.1,7.6&#10;&#9;c2.1,1,4.6,1.4,7.4,1.4c2,0,4.3-0.3,6.8-0.8c5.6-1.2,10.9-4,15.9-8.5c4.7-4.2,9.1-9.4,13.3-15.6c0.5-0.8,1.1-1.6,1.6-2.4&#10;&#9;c0.8,0.6,1.7,1,2.7,1.5c1,0.5,2.1,0.8,3.3,1c0.4,1,0.8,2,1.3,3.1c1.7,3.3,4.4,5.9,8.1,7.6c2.1,1,4.6,1.4,7.4,1.4&#10;&#9;c2,0,4.3-0.3,6.8-0.8c5.3-1.1,10.2-4.1,14.7-8.8c4.1-4.3,7.8-9.4,11.2-15.3c0.4-0.8,1-1.8,1.6-3.1c1.5,4.6,4.4,6.9,6.8,8.1&#10;&#9;c2.5,1.4,5.4,2,8.7,2c0,0,0,0,0,0c1.7,0,3.6-0.2,5.6-0.6c9.3-2,17.2-6.6,23.4-13.7c4.4-5.1,7.2-11.4,8.1-18.2&#10;&#9;c2.3,2.6,5.6,4.3,9.3,4.8c1.2,6.9,7.4,11.9,15,11.9c0,0,0,0,0,0c1.3,0,2.5-0.1,3.8-0.4c9.2-1.9,15.7-10.1,15-18.6&#10;&#9;c-0.6-6.8-5.9-12-12.9-12.9c-0.1-0.7-0.3-1.4-0.5-2C491.4,843.1,493.9,834,498.5,816.9z M454.8,846.4L454.8,846.4&#10;&#9;C454.8,846.4,454.8,846.4,454.8,846.4C454.8,846.4,454.8,846.4,454.8,846.4z M333,763.5c5.6-5.1,10.1-11.1,13.4-17.8&#10;&#9;c1.1,0.9,2.4,1.7,3.9,2.4c1,0.5,2.1,0.8,3.3,1.1c0.4,1,0.8,2,1.3,3.1c1.6,3.3,4.4,5.8,8.1,7.5c2.1,1,4.7,1.5,7.5,1.5&#10;&#9;c2.1,0,4.3-0.3,6.8-0.8c5.8-1.2,11-4.2,15.7-9c2.6-2.7,5.1-5.7,7.4-9c0.3-0.4,0.7-0.8,1-1.2c1.3,2.9,3.3,5.3,6,7l0.1,0.1&#10;&#9;c3.1,1.9,6.8,2.8,10.8,2.8c1.9,0,3.9-0.2,5.9-0.6c6-1.2,13.6-7.3,16.7-11.3c3.1-4,4.8-8.8,6.1-13.4c1.7,1.1,3.5,1.9,5.4,2.5&#10;&#9;c1.2,3.6,3.4,6.5,6.5,8.7c3.8,2.6,8.1,4,12.8,4c0,0,0,0,0,0c0.4,0,0.9,0,1.3-0.1c-2.1,6.9-4.1,15.9-6,27.2&#10;&#9;c-2.4,13.9-4,27.7-4.6,38.9c-2.6-6.7-7.9-11.8-16-12.2c-0.6-5.2-3.8-8.9-9.1-10.6c-2.4-0.8-5-1.2-7.7-1.2c-2.2,0-4.5,0.3-6.8,0.7&#10;&#9;c-4.4,0.9-8.7,2.7-12.9,5.4c0.1-0.7,0.1-1.3,0.1-2c0.2-6.3-3.4-13.4-10.7-14.6c-0.8-0.1-1.5-0.2-2.3-0.3&#10;&#9;c-0.9-5.3-4.4-10.4-10.4-11.4c-1.5-0.3-2.9-0.4-4.3-0.4c-16.3,0-22.1,16.4-25.9,27.3l-0.2,0.5c-3.1,8.9-6.9,19-11.1,30.1&#10;&#9;c-0.1,0.3-0.3,0.7-0.4,1c0.7-2.4,1.3-4.8,2-7.2c0.7-2.4,1.3-4.8,2-7.3c0.3-0.9,0.6-2,1-3c1.4-3.8,3.1-8.5,1.1-13.7&#10;&#9;c-2-5.2-6.2-8.3-11.9-8.9c-0.1-0.9-0.4-1.8-0.8-2.8c-1.9-4.9-5.7-7.9-10.8-8.8C329.3,766.6,331.2,765.2,333,763.5z" transform="matrix(1, 0, 0, 1, -126.33193969726562, -568.5007019042969)"/>
<g transform="matrix(1, 0, 0, 1, -126.33193969726562, -568.5007019042969)">
	<path d="M512.9,796.3c4.8-17.9,11.4-42.5,23.7-72.3c1.1-2.6,4.3-10.5-1.1-16c-1.6-1.6-4.4-3.5-9.3-3.5c-0.4,0-0.9,0-1.3,0.1&#10;&#9;&#9;c0.3-3-0.3-6.3-3-9c-0.7-0.7-1.7-1.5-2.9-2.1c4.9-7.9,9-16.7,11.7-25.6l0.2-0.7l0-0.7c0-1.1,0-2,0-2.9c-0.1-2.2-0.5-7.4-4.9-9.8&#10;&#9;&#9;c-1.5-0.8-3.1-1.2-4.6-1.2c-1.6,0-2.9,0.4-4,1c0-0.9,0-1.8,0-2.5c-0.1-2.2-0.5-7.4-4.9-9.8c-1-0.5-2-0.8-2.9-1&#10;&#9;&#9;c-0.3-3.8-1.7-7.6-4-10.9c-2.9-4-6.8-6.8-11.1-8c-0.6-1.6-1.5-3.1-2.5-4.5c-3.6-5.1-9-8.2-14.6-8.6c-0.4,0-0.9,0-1.3,0&#10;&#9;&#9;c-1.6,0-3.1,0.2-4.6,0.5c-5.5,0.3-10.5,2.5-15,6.1c-5.1,4.1-10.4,8.8-14.4,14.2c-0.3-3.1-1.5-6-4-8.3c-2.1-1.9-4.8-2.9-7.9-2.9&#10;&#9;&#9;c-3.8,0-7.8,1.5-11.5,3.4c1-2.1,1.6-4.3,1.9-6.6l0-0.2l0-0.2c0-0.9,0-1.8-0.1-2.6c-0.4-4.4-2.4-8.2-5.8-11.1&#10;&#9;&#9;c-2.3-2-5.1-3.2-8.2-3.9c-0.8-3.3-2.6-6.3-5.4-8.6c-3.4-2.9-7.8-4.4-13-4.4c-0.7,0-1.4,0-2.1,0.1l-0.2,0c-0.8,0.1-1.7,0.2-2.5,0.4&#10;&#9;&#9;c-4.7,1-8.9,3.1-12.5,6.3c-4.3,3.9-6.7,8.5-7.4,13.8l0,0.2l0,0.2c0,0.9,0,1.8,0.1,2.7c0.4,4.5,2.4,8.3,5.8,11.1&#10;&#9;&#9;c2.3,2,5.1,3.3,8.2,3.9c0.5,2.1,1.4,4,2.6,5.7c-1.1-0.1-2.2-0.2-3.3-0.2c-3.7,0-7.2,0.7-10.4,2.2c-11.3,5.2-13.9,16.1-15.9,24.8&#10;&#9;&#9;c-0.3,1.1-0.5,2.1-0.8,3.2c0,0.2-0.1,0.3-0.1,0.5c-0.7-0.8-1.5-1.6-2.2-2.3c-2.2-2-4.7-3.5-7.5-4.5c-1.6-3.2-3.6-5.9-6.1-8.1&#10;&#9;&#9;c-4.5-4-10-6-16.5-6c-2.4,0-5,0.3-7.6,0.8c-14,2.9-24.8,11.7-32.7,22.5c0.8-4,1.8-7.9,2.9-11.8c0.2-0.8,0.5-1.7,0.8-2.6&#10;&#9;&#9;c2.3-7.5,5.5-17.8,0.4-26.2c-3-4.9-7.1-8.1-12.1-9.5c-0.4-1-0.9-2.1-1.5-3.1c-4.1-6.7-10.2-10.2-17.9-10.2&#10;&#9;&#9;c-9.4,0-19.3,5.3-27.8,10.5c-9.6,5.9-18.5,13-26.3,21.1c-7.9,8.2-14.2,16.9-18.8,26c-4.8,9.5-6.8,18.8-6,27.6&#10;&#9;&#9;c0.3,3.4,1.5,6.7,3.6,9.8c2.2,3.3,5.4,5.8,9.5,7.4c0.6,0.2,1.2,0.4,1.8,0.6c0.6,1.6,1.4,3.1,2.4,4.6c2.2,3.3,5.4,5.8,9.5,7.4&#10;&#9;&#9;c2.2,0.9,4.7,1.3,7.5,1.3l0.8,0l0.8-0.2c3.1-0.9,5.7-2.3,7.7-4.1c-1,7-2.1,14.2-3.2,21.4c-1,0.7-2.2,1.5-3.4,2.3&#10;&#9;&#9;c-18.3,11.8-31.6,24.1-41.9,38.6c-8.6,10.6-12.5,20.7-11.7,30.1c0.7,7.8,4.3,13.8,10.5,17.4c1.5,0.9,3.1,1.6,4.7,2.1&#10;&#9;&#9;c1.7,4.4,4.7,8,8.9,10.4c3.9,2.3,8.4,3.4,13.3,3.4c2.4,0,5-0.3,7.6-0.8c10.1-2.1,18.7-5.8,25.5-10.8c6.8-5,12.4-11,16.8-17.7&#10;&#9;&#9;c3.9-5.9,7.2-12.2,9.7-18.7c2.4-6.3,4.5-12.7,6.2-18.8c2.3-8.7,4.3-17.6,5.9-26.5c2.9-2,6.1-4.1,9.4-6.4c0.5-0.3,1.1-0.5,1.6-0.8&#10;&#9;&#9;c1.3,0.9,2.8,1.6,4.3,2.3c0.5,0.9,1,1.8,1.6,2.7c3,4.6,7.4,8,13,10.2c2.2,0.8,4.6,1.4,7.2,1.6c-2.9,1.4-5.7,3-8.6,4.7&#10;&#9;&#9;c-9.6,5.9-18.4,13-26.2,21.1c-7.9,8.2-14.2,16.9-18.8,26c-4.8,9.5-6.9,18.8-6.1,27.6c0.3,3.4,1.6,6.7,3.7,9.8&#10;&#9;&#9;c2.2,3.3,5.4,5.7,9.5,7.3c0.5,0.2,1.1,0.4,1.6,0.5c0.6,1.6,1.4,3.2,2.5,4.7c2.2,3.3,5.4,5.7,9.5,7.3c2.3,0.9,4.9,1.4,7.7,1.4&#10;&#9;&#9;c1.3,0,2.6-0.1,4-0.3c-1.2,8.6-1.6,15.3-1.1,20.3c0.3,2.9,1.2,5.9,2.7,8.9c1.8,3.6,4.7,6.3,8.7,8.1c1.1,0.5,2.3,0.9,3.5,1.1&#10;&#9;&#9;c0.4,1.1,0.8,2.2,1.4,3.3c1.8,3.6,4.7,6.3,8.7,8.1c2.3,1,4.9,1.5,7.9,1.5c2.2,0,4.6-0.3,7.2-0.8c5.9-1.2,11.7-4.3,17-9.1&#10;&#9;&#9;c5-4.5,9.8-10.1,14.2-16.7c0.6-0.8,1.1-1.7,1.7-2.6c0.9,0.6,1.8,1.1,2.9,1.6c1.1,0.5,2.3,0.9,3.5,1.1c0.4,1.1,0.8,2.2,1.4,3.3&#10;&#9;&#9;c1.8,3.6,4.7,6.3,8.7,8.1c2.3,1,4.9,1.5,7.9,1.5c2.2,0,4.6-0.3,7.2-0.8c5.6-1.2,10.9-4.4,15.7-9.5c4.3-4.6,8.4-10.1,12-16.3&#10;&#9;&#9;c0.5-0.8,1.1-2,1.7-3.3c1.6,4.9,4.7,7.4,7.3,8.7c2.7,1.5,5.8,2.2,9.3,2.2c0,0,0,0,0,0c1.8,0,3.8-0.2,5.9-0.6c10-2.1,18.4-7,25-14.6&#10;&#9;&#9;c4.7-5.4,7.7-12.2,8.6-19.4c2.5,2.7,5.9,4.6,10,5.1c1.3,7.4,7.9,12.7,16.1,12.7c0,0,0,0,0,0c1.3,0,2.7-0.1,4.1-0.4&#10;&#9;&#9;c9.8-2.1,16.9-10.8,16-19.9c-0.7-7.3-6.3-12.8-13.8-13.8c-0.1-0.8-0.3-1.5-0.6-2.2C505.4,824.3,508,814.5,512.9,796.3z&#10;&#9;&#9; M466.2,827.8L466.2,827.8C466.2,827.8,466.2,827.8,466.2,827.8C466.2,827.8,466.2,827.8,466.2,827.8z M335.9,739.2&#10;&#9;&#9;c5.9-5.4,10.8-11.9,14.3-19.1c1.2,1,2.6,1.9,4.2,2.6c1.1,0.5,2.3,0.9,3.6,1.2c0.4,1.1,0.8,2.2,1.4,3.3c1.8,3.5,4.7,6.2,8.6,8.1&#10;&#9;&#9;c2.3,1.1,5,1.6,8,1.6c2.2,0,4.7-0.3,7.3-0.8c6.2-1.3,11.8-4.5,16.8-9.6c2.8-2.9,5.5-6.1,7.9-9.6c0.4-0.4,0.7-0.8,1.1-1.2&#10;&#9;&#9;c1.4,3.2,3.5,5.7,6.4,7.5l0.1,0.1c3.3,2,7.2,3,11.6,3c2,0,4.1-0.2,6.3-0.6c6.5-1.2,14.5-7.8,17.9-12.1c3.4-4.3,5.2-9.4,6.6-14.3&#10;&#9;&#9;c1.8,1.2,3.8,2.1,5.8,2.7c1.3,3.9,3.6,7,6.9,9.3c4,2.8,8.7,4.3,13.7,4.3c0,0,0,0,0,0c0.5,0,0.9,0,1.4-0.1&#10;&#9;&#9;c-2.2,7.3-4.4,17.1-6.5,29.1c-2.6,14.9-4.3,29.7-5,41.6c-2.8-7.1-8.5-12.6-17.1-13.1c-0.6-5.5-4.1-9.6-9.8-11.4&#10;&#9;&#9;c-2.6-0.8-5.3-1.2-8.2-1.2c-2.3,0-4.8,0.3-7.3,0.8c-4.7,1-9.3,2.9-13.8,5.8c0.1-0.7,0.1-1.4,0.1-2.2c0.2-6.8-3.7-14.3-11.4-15.6&#10;&#9;&#9;c-0.8-0.1-1.6-0.2-2.4-0.3c-1-5.7-4.7-11.1-11.2-12.2c-1.6-0.3-3.1-0.4-4.6-0.4c-17.4,0-23.6,17.6-27.7,29.2l-0.2,0.5&#10;&#9;&#9;c-3.4,9.5-7.4,20.3-11.9,32.2c-0.1,0.4-0.3,0.7-0.4,1.1c0.7-2.6,1.4-5.1,2.1-7.7c0.7-2.6,1.4-5.2,2.1-7.8c0.3-1,0.7-2.1,1.1-3.3&#10;&#9;&#9;c1.5-4.1,3.3-9.1,1.2-14.7c-2.2-5.6-6.7-8.9-12.8-9.5c-0.2-1-0.4-2-0.8-3c-2-5.2-6.1-8.5-11.6-9.4&#10;&#9;&#9;C331.9,742.5,334,740.9,335.9,739.2z"/>
	<g>
		<path fill="#FFFFFF" d="M512,651.3c-0.1-1.7-0.3-4.5-2.1-5.4c-5.4-2.8-6.7,5.1-8.2,8.4c-1.1,2.5-2.4,4.9-3.8,7.3&#10;&#9;&#9;&#9;c-1.5,2.7-3.2,5.3-4.9,7.8c-1.5,2.2-3.3,5.5-5.5,7.1c-2.2,1.5-3.1-0.1-3.4-2c-0.2-0.5-0.3-1.1-0.4-1.8c-0.7-7.9,1.3-20.8,6.2-38.8&#10;&#9;&#9;&#9;c0.1-0.4,0.2-0.8,0.4-1.3c2.4-8.5-4.6-18.6-13.2-19.1c-11.1-0.7-17.9,9.8-24.3,17.3c-5.4,6.3-9.5,13.9-12.8,21.9&#10;&#9;&#9;&#9;c-2.1,5.3-3.8,10.8-5.4,16.3c-0.6,1.8-1.2,3.5-1.7,5.1c-1.8,5.8-3.2,10.6-4.2,14.4c-0.1,0.1-0.3,0.2-0.4,0.3&#10;&#9;&#9;&#9;c-1.4,0-2.3-1.8-2.8-5.5c-0.3-7.2,1.3-17.6,4.8-31.1c1.7-6.6,10.6-21.6,4.1-27.6c-4.7-4.3-14.4,1.6-18.4,4.4&#10;&#9;&#9;&#9;c-11.5,8-12.9,24.7-14.9,37.7c-0.4,2.5-0.7,4.9-1,7.2c-3.4,4.8-7.1,9.5-10.7,14.2c-2.5,3.1-5,6.3-7.8,9.1&#10;&#9;&#9;&#9;c-0.3,0.3-0.9,0.8-1.8,1.4c-0.4-0.2-0.7-0.4-0.9-0.9c-0.4-0.9-0.7-1.9-0.8-2.9c-0.5-5,0.1-11.5,1.6-19.5&#10;&#9;&#9;&#9;c1.3-6.9,2.8-13.9,4.8-20.6c2.2-7.6,8.9-19.7-4.8-21.5c-3.7-0.5-7.5,0-10.9,1.6c-10.1,4.6-11.4,15-13.7,24.5&#10;&#9;&#9;&#9;c-0.7,2.7-1.3,5.4-1.9,8.1c-3.9,3.6-8.8,6-13.9,7.8c0-2.2,0-4.4-0.2-6.5c-0.9-9.7-3.8-16.8-8.6-21c-4.9-4.3-11.4-5.6-19.5-3.9&#10;&#9;&#9;&#9;c-23.3,4.9-37.5,28.5-42.5,50c-0.8,3.5-1.3,6.9-1.5,10.2c-6.7,3-13.4,6.1-19.9,9.5c0.9-5.3,1.7-10.5,2.5-15.6&#10;&#9;&#9;&#9;c2-13.1,4.1-26,6.6-38.7c1.5-8,3-16.1,5.3-23.9c2.2-7.4,6.2-17.3,1.8-24.6c-9.1-14.9-27.5-4.5-38.3,2.1&#10;&#9;&#9;&#9;c-9.3,5.7-17.7,12.5-25.2,20.3c-7.5,7.8-13.5,16-17.8,24.7c-4.4,8.6-6.2,16.9-5.5,24.7c0.2,2.5,1.1,4.9,2.7,7.3&#10;&#9;&#9;&#9;c1.6,2.4,3.9,4.2,6.9,5.3c1.6,0.6,3.5,1,5.6,1c2.5-0.7,4.7-1.9,6.4-3.7c1.8-1.9,2.7-4.2,3.3-6.7c-0.9-0.8-1.7-1.6-2.3-2.6&#10;&#9;&#9;&#9;c-2.3-3.3-3.7-7-4.1-11.2c-0.4-4.1,0.4-9,2.3-14.6c1.9-5.6,4.6-11.2,8.2-16.7c3.6-5.5,7.7-10.3,12.4-14.4&#10;&#9;&#9;&#9;c4.7-4.1,9.6-6.7,14.8-7.8c1.1-0.2,2-0.2,2.4,0.2c0.5,0.4,0.8,0.9,0.8,1.5c0.1,0.6-0.9,4.6-2.9,11.9c-2,7.3-4,17.1-6.1,29.4&#10;&#9;&#9;&#9;c-2.1,12.3-3.9,24.6-5.5,37c-1.5,11.8-3.2,23.7-5.2,35.6c-1.8,1.3-3.5,2.5-5.4,3.7c-16,10.3-29.7,22.1-40.6,37.3&#10;&#9;&#9;&#9;c-7.8,9.6-11.3,18.4-10.6,26.4c0.6,6.1,3.2,10.5,7.9,13.2c4.7,2.7,10.4,3.4,17.1,2c9.3-2,17.2-5.3,23.5-9.9&#10;&#9;&#9;&#9;c6.3-4.6,11.5-10.1,15.5-16.4c3.7-5.6,6.8-11.5,9.1-17.7c2.4-6.2,4.4-12.3,6-18.3c2.5-9.3,4.6-18.7,6.2-28.3&#10;&#9;&#9;&#9;c3.5-2.3,7.4-4.9,11.6-7.8c3.5-1.7,7.1-3.4,10.6-5c0.5,3.9,1.8,7.5,4.1,10.9c2.4,3.7,5.9,6.4,10.4,8.1c4.6,1.8,10.2,1.9,17.1,0.5&#10;&#9;&#9;&#9;c7.8-1.6,14.5-5,20.2-10.2c5.7-5.2,10.2-11.2,13.5-18.2c3.2-6.4,5.2-13,6.2-19.6c4.2-1.3,8.3-3,12.1-5.2c-0.3,1.5-0.6,3-0.8,4.6&#10;&#9;&#9;&#9;c-1.4,8.4-1.8,15.4-1.3,20.9c0.2,2.2,0.9,4.6,2.1,7c1.2,2.4,3.2,4.3,6.1,5.6c2.9,1.3,6.8,1.5,12,0.4c5.1-1.1,9.8-3.8,14-8.1&#10;&#9;&#9;&#9;c2.7-2.8,5.2-5.9,7.6-9.3c3.1-3.3,5.8-7.1,8.5-10.7c0,1.7,0.1,3.2,0.2,4.5c0.5,5.3,2.4,9.1,5.9,11.3c3.7,2.3,8.5,2.8,14.1,1.7&#10;&#9;&#9;&#9;c4.7-0.9,11.7-6.3,14.7-10.1c4.4-5.6,5.8-13.3,7.7-20.1c0.3-1,0.6-2.1,0.9-3.1c1.6-4.6,3.3-9.1,5.1-13.5c1.5-3.4,3.1-6.8,4.7-10.2&#10;&#9;&#9;&#9;c4-8.4,7.8-14.3,11.6-17.6c-7.1,22.4-10.1,39.1-9.1,49.9c0.5,5,2.4,8.7,5.9,11.1c13.5,9.5,32.5-3.3,40-14.8&#10;&#9;&#9;&#9;c4.9-7.6,9.1-16.5,12-25.7C512.1,652.9,512.1,652.1,512,651.3z M211.9,755.1c-0.6,3.2-1.7,7.4-3.3,12.6&#10;&#9;&#9;&#9;c-1.6,5.2-3.6,10.6-6.1,16.1c-2.4,5.4-5.3,10.2-8.8,14.3c-3.4,4.1-7.4,6.6-12,7.6c-3,0.6-5.3,0.3-6.8-1.1&#10;&#9;&#9;&#9;c-1.5-1.4-2.4-3.4-2.7-6.1c-0.4-4.9,0.5-9.7,2.8-14.6c0.9-1.9,2-3.8,3.2-5.7c3.9-5.3,8.2-10.3,12.9-15c0.1-0.1,0.2-0.2,0.3-0.3&#10;&#9;&#9;&#9;c2.2-2.1,4.5-4.1,6.9-6c0.9-0.7,1.8-1.4,2.7-2.2c4-3,8.2-5.8,12.5-8.6C213.1,749.2,212.5,752.1,211.9,755.1z M320.8,699.8&#10;&#9;&#9;&#9;c-1.5,4.2-3.4,7.8-5.7,10.8c-2.3,3-5,4.8-8,5.4c-2.8,0.6-5,0-6.6-1.7c-1.5-1.7-2.6-3.8-3.2-6.3c-0.6-2.5-1-4.4-1.1-6&#10;&#9;&#9;&#9;c-0.5-5.3-0.1-10.9,1.2-16.9c1.5,0.5,3.1,0.8,4.7,1.1c6.7,2.4,14.2,2.8,21.5,1.8C323.1,692.2,322.1,696.1,320.8,699.8z&#10;&#9;&#9;&#9; M324.3,679.3c-8.4,1.5-17.1,0.8-24-3.8c0.5-1.4,1.1-2.8,1.8-4.2c1.6-3.5-1.1-7.5-4.9-7.1c0,0-0.1,0-0.1,0&#10;&#9;&#9;&#9;c1.7-2.6,3.4-4.4,5.3-5.6c1.8-1.1,3.9-2,6.3-2.4c5.1-1.1,8.9,0,11.2,3.2c2.4,3.2,3.8,7.1,4.2,11.7&#10;&#9;&#9;&#9;C324.3,673.7,324.4,676.4,324.3,679.3z"/>
		<path fill="#FFFFFF" d="M372.7,614.3c2.9,2.4,6.6,3.4,11.2,3c0.8-0.1,1.6-0.2,2.3-0.4c3.7-0.8,6.9-2.4,9.6-4.9&#10;&#9;&#9;&#9;c3.3-3,5.2-6.5,5.6-10.6c0-0.7,0-1.4-0.1-2c-0.3-3-1.6-5.5-3.9-7.5c-2.8-2.4-6.5-3.4-11.2-3c-0.7,0.1-1.3,0.2-2,0.3&#10;&#9;&#9;&#9;c-3.8,0.8-7.2,2.5-10,5c-3.3,3-5.2,6.5-5.6,10.5c0,0.7,0,1.4,0.1,2C369.1,609.9,370.4,612.4,372.7,614.3z"/>
		<path fill="#FFFFFF" d="M447,815.4c-0.8-2.7-1.8-5.5-3.3-7.7c0,0,0,0,0,0c6.6-4.9,13.8-7.6,21.6-10.1c2.3-3.1,1.9-7.8-2.5-8.4&#10;&#9;&#9;&#9;c-8.4,2.7-16.1,5.6-23.1,10.8c-0.2,0.1-5.3-12.1-5.5-13c-0.6-3-0.5-6.2,1-8.8c1.7-3.1,6.9-6.1,9.9-2.9c1.1,1.1,1.7,2.4,1.8,4&#10;&#9;&#9;&#9;c0.1,1.2,0,1.2-0.2,2.4c-0.2,1.2,1.3,2,2.1,1.1c0.6-0.6,1.2-0.4,1.7-1.3c1.2-2.4,1.7-4.9,1.5-7.6c-0.3-3.6-2.4-6-6.1-7.2&#10;&#9;&#9;&#9;c-3.8-1.2-8-1.3-12.8-0.3c-4.2,0.9-8.4,2.7-12.5,5.3c-4.1,2.7-7.4,6.2-9.9,10.5c-2.5,4.3-20.6,65-33.2,77&#10;&#9;&#9;&#9;c-0.1-0.5-0.2-0.9-0.2-1.4c-0.6-6.5,0.9-18.1,4.5-34.8c3.6-16.7,7.6-33.1,11.9-49.2c1.8-6.8,5.5-14.7,5.7-21.7&#10;&#9;&#9;&#9;c0.1-4.5-2.2-9.4-7-10.2c-16.8-2.9-22.2,13.4-26.6,25.8c-3.4,9.6-7.4,20.4-11.9,32.3c-4.6,11.9-9.2,23.5-14.1,34.7&#10;&#9;&#9;&#9;c-4.8,11.2-9.3,20.6-13.5,28.2c-4.2,7.6-7.6,11.7-10.2,12.2c-1.3,0.3-2.2,0-2.6-0.9c-0.5-0.9-0.7-1.8-0.8-2.9&#10;&#9;&#9;&#9;c-0.6-6.5,0.9-18.1,4.6-34.8c3.7-16.8,7.6-33.2,11.9-49.2c1.6-5.8,3.2-11.6,4.8-17.5c1.3-4.7,4.4-9.6,2.5-14.6&#10;&#9;&#9;&#9;c-2.5-6.3-8.6-6.9-14.4-5.7c-9.1,1.9-18.3,5.7-27.5,11.4c-9.3,5.7-17.7,12.4-25.2,20.3c-7.5,7.8-13.5,16-17.9,24.7&#10;&#9;&#9;&#9;c-4.4,8.7-6.2,16.9-5.5,24.7c0.2,2.5,1.2,4.9,2.8,7.3c1.6,2.4,4,4.1,7,5.3c2.8,1.1,6.1,1.3,10,0.6c1.5-0.8,2.8-1.8,3.9-3.1&#10;&#9;&#9;&#9;c1.5-1.8,2-4,2.1-6.2c-1.2-1-2.3-2.1-3.2-3.3c-2.4-3.3-3.7-7-4.1-11.2c-0.6-7,1-14.6,5-22.8c4-8.2,9.4-15.5,16.1-21.9&#10;&#9;&#9;&#9;c6.8-6.4,14-10.4,21.8-12.1c-2.5,8.6-5.8,20.7-9.8,36.6c-4,15.8-7.5,31.6-10.7,47.5c-3.1,15.8-4.4,27.3-3.7,34.3&#10;&#9;&#9;&#9;c0.2,2.2,0.9,4.6,2.1,7c1.2,2.5,3.3,4.3,6.1,5.6c2.9,1.3,6.8,1.4,11.8,0.4c5-1.1,9.9-3.7,14.6-7.9c4.7-4.2,9.1-9.4,13.3-15.7&#10;&#9;&#9;&#9;c4.2-6.3,8.1-13.2,11.7-20.8c3.6-7.6,6.9-15.4,9.9-23.5c-1.8,8.9-3.1,17-4.1,24.3c-1,7.3-1.3,12.9-0.9,16.9c0.2,2.2,0.9,4.6,2.1,7&#10;&#9;&#9;&#9;c1.2,2.5,3.3,4.3,6.1,5.6c2.9,1.3,6.8,1.4,11.8,0.4c4.6-1,8.9-3.6,13-7.9c4.1-4.3,7.8-9.4,11.2-15.3c3.4-5.9,12.9-29.3,15.3-35.2&#10;&#9;&#9;&#9;c0.8-2,4.3-14.9,4.8-15.9c0.4-1,0.6,6,1.1,6.9c0.9,1.8,1.8,4.7,2.7,6.5c0.1,0.2,0.3-0.6,0.4-0.4c0.2,0.5,0.2,1-0.2,1.4&#10;&#9;&#9;&#9;c-6,6.5-11.2,15-12.5,23.2c-0.1,0.6-0.1,1.1-0.2,1.6c-0.6,2.4-0.7,4.7-0.5,7c0.5,4.1,2.3,6.8,5.2,8.2c3,1.7,6.9,2,11.7,1.1&#10;&#9;&#9;&#9;c8.9-1.9,16.2-6.2,22.1-12.9c4.9-5.6,7.5-12.9,7.6-20.3c0.1-3.8-0.5-7.5-1.7-11.1C447.6,817.1,447.3,816.2,447,815.4z&#10;&#9;&#9;&#9; M421.8,848.5c-0.7,1.8-1.5,1.9-2.6,3c-4.8,2.4-7.8-1.4-7-6.5c0.8-4.8,4.1-9.2,7.1-12.8c0.5-0.7,1.1-1.3,1.7-2&#10;&#9;&#9;&#9;c1.2,3,1.9,6.1,2.2,9.3C423.5,842.2,423,845.2,421.8,848.5z"/>
		<path fill="#FFFFFF" d="M518.1,699.2c-4-4.2-14-1-21.1,4.3c-8.1,6-19.1,72.5-17.4,98.2c0.1,2.8,0.4,7,3,8.8&#10;&#9;&#9;&#9;c8.6-1.2,11-41.4,35.5-101C519.6,705.8,520.6,701.7,518.1,699.2z"/>
		<path fill="#FFFFFF" d="M481.4,822.5c-7.1,1.5-12.4,7.9-11.8,14.2c0.6,6.4,6.8,10.3,13.9,8.8c7.1-1.5,12.4-7.9,11.8-14.2&#10;&#9;&#9;&#9;C494.7,824.9,488.5,821,481.4,822.5z"/>
	</g>
</g>
<radialGradient id="SVGID_6_" cx="1061.4905" cy="452.6986" r="105.5209" gradientTransform="matrix(1.1208 -0.1208 3.624430e-002 0.2638 -141.1803 458.0694)" gradientUnits="userSpaceOnUse">
	<stop offset="0" style="stop-color:#B1B1B1"/>
	<stop offset="1" style="stop-color:#E5E5E5"/>
</radialGradient>



</svg>